<?xml version="1.0" standalone="no"?>
<!DOCTYPE svg PUBLIC "-//W3C//DTD SVG 20010904//EN"
 "http://www.w3.org/TR/2001/REC-SVG-20010904/DTD/svg10.dtd">
<svg version="1.0" xmlns="http://www.w3.org/2000/svg"
 width="385.000000pt" height="385.000000pt" viewBox="0 0 385.000000 385.000000"
 preserveAspectRatio="xMidYMid meet">
<metadata>
Created by potrace 1.14, written by Peter Selinger 2001-2017
</metadata>
<g transform="translate(0.000000,385.000000) scale(0.100000,-0.100000)"
fill="#000000" stroke="none">
<path d="M1630 1910 c0 -776 2 -880 15 -880 13 0 15 104 15 880 0 776 -2 880
-15 880 -13 0 -15 -104 -15 -880z"/>
<path d="M2115 2551 c-6 -11 -195 -499 -195 -506 0 -3 15 -5 33 -5 32 0 34 2
61 78 l28 77 102 0 c55 0 106 -4 112 -7 7 -4 22 -39 35 -78 l23 -70 39 0 c33
0 38 3 33 18 -22 58 -190 488 -192 491 -5 6 -75 8 -79 2z m118 -286 c1 -6 -31
-10 -80 -11 -46 -1 -83 3 -83 7 0 5 19 58 42 120 l41 111 39 -108 c22 -60 40
-113 41 -119z"/>
<path d="M911 2483 c-25 -9 -65 -36 -91 -62 -74 -75 -97 -171 -65 -276 l14
-49 -44 -44 c-45 -44 -45 -44 -54 -20 -5 13 -102 116 -215 228 -201 201 -206
205 -248 206 -33 1 -50 -5 -70 -24 -28 -26 -28 -27 -28 -154 l0 -128 75 0 75
0 0 42 0 43 154 -154 c85 -84 158 -151 164 -147 5 3 12 0 15 -7 3 -7 -54 -71
-130 -147 -74 -74 -139 -145 -144 -158 -5 -13 -13 -21 -18 -18 -4 3 -50 -36
-100 -86 -102 -102 -111 -126 -65 -172 46 -45 69 -37 172 67 51 51 90 96 86
100 -4 3 2 9 12 13 10 4 83 70 161 147 121 120 143 138 149 121 11 -31 247
-264 267 -264 12 0 17 -5 14 -14 -3 -8 32 -51 87 -105 102 -101 124 -110 170
-65 46 47 37 71 -64 170 -49 49 -95 89 -102 89 -7 0 -14 7 -16 16 -4 23 -231
249 -261 261 -24 9 -22 12 67 101 51 51 92 96 92 100 0 4 -16 24 -35 44 -60
62 -56 152 9 193 63 38 141 17 171 -46 25 -52 17 -98 -24 -141 -17 -18 -21
-34 -20 -87 l1 -66 74 0 c52 0 74 4 75 13 1 6 2 23 3 37 1 14 12 45 25 69 68
129 13 298 -119 362 -63 31 -153 36 -219 12z"/>
<path d="M2448 2412 c-16 -3 -18 -20 -18 -188 l0 -184 30 0 c17 0 31 3 31 8 1
4 2 61 3 127 1 73 7 129 14 142 27 49 110 64 140 26 13 -18 14 -27 14 -190 l1
-113 31 0 32 0 -1 119 c0 66 3 132 7 148 14 53 115 78 145 37 15 -20 15 -23
16 -186 l1 -118 31 0 31 0 -1 153 c0 130 -3 157 -18 181 -40 60 -157 62 -206
3 -10 -13 -16 -11 -41 14 -44 44 -125 39 -177 -10 l-23 -22 0 25 c0 25 -14 35
-42 28z"/>
<path d="M3120 2398 c-59 -30 -91 -92 -91 -172 0 -112 61 -183 163 -192 129
-10 217 96 193 235 -21 124 -150 187 -265 129z m130 -43 c88 -29 98 -197 14
-252 -53 -34 -128 -10 -157 50 -18 36 -16 121 2 156 26 47 82 66 141 46z"/>
<path d="M3473 2413 c-10 -4 -13 -50 -13 -189 l0 -184 30 0 c34 0 31 -13 32
147 1 137 23 175 103 177 71 1 80 -14 82 -142 1 -59 2 -124 2 -144 1 -35 3
-38 31 -38 l30 0 0 133 c0 160 -10 201 -53 227 -53 33 -155 20 -178 -21 -12
-24 -29 -16 -22 10 5 19 -20 32 -44 24z"/>
<path d="M173 2127 c-4 -6 -6 -30 -4 -54 2 -32 -1 -43 -12 -43 -8 0 -21 -8
-30 -18 -14 -16 -17 -43 -17 -175 l0 -157 75 0 75 0 0 158 c0 141 -2 161 -18
175 -10 10 -24 17 -30 17 -8 0 -11 17 -9 50 3 49 -13 74 -30 47z"/>
<path d="M2115 1851 c-6 -11 -195 -499 -195 -506 0 -3 15 -5 33 -5 31 0 33 3
62 77 l31 78 102 0 c57 1 106 -2 110 -5 4 -3 19 -38 32 -77 l25 -73 38 0 c44
0 44 1 1 98 -13 29 -23 53 -23 55 1 4 -132 347 -137 356 -5 6 -75 8 -79 2z
m85 -192 l38 -105 -84 -1 c-46 0 -84 3 -84 8 0 22 84 231 88 218 3 -8 22 -62
42 -120z"/>
<path d="M3096 1852 c-3 -3 -6 -20 -6 -39 0 -30 3 -33 30 -33 28 0 30 3 30 35
0 19 -3 35 -7 36 -5 0 -16 2 -25 4 -9 2 -19 0 -22 -3z"/>
<path d="M2515 1706 c-66 -31 -105 -105 -101 -192 6 -118 78 -185 193 -180 68
3 125 41 148 99 22 53 22 145 1 185 -21 41 -21 42 19 42 31 0 35 3 35 25 0 23
-3 25 -52 25 -29 0 -89 2 -133 5 -56 3 -89 1 -110 -9z m145 -64 c58 -44 64
-172 9 -223 -79 -74 -189 -14 -189 103 0 28 7 65 16 83 28 60 108 78 164 37z"/>
<path d="M2852 1707 c-5 -7 -9 -92 -9 -189 l0 -178 31 0 31 0 1 113 c1 148 24
189 110 201 13 2 20 13 22 36 l3 33 -38 -6 c-26 -4 -48 -17 -70 -41 l-32 -34
-3 35 c-3 38 -28 53 -46 30z"/>
<path d="M3094 1711 c-2 -2 -4 -87 -4 -188 l0 -183 30 0 30 0 0 188 0 187 -26
0 c-14 0 -28 -2 -30 -4z"/>
<path d="M2430 1273 c0 -53 102 -132 170 -133 46 0 145 65 171 112 12 22 1 48
-20 48 -9 0 -34 -18 -55 -39 -75 -76 -120 -78 -187 -6 -49 52 -79 59 -79 18z"/>
</g>
</svg>
